PathFileType	4	(X/Y/Z)	OpenSim_Sub07_EMGBaseline_Accel.trc
DataRate	CameraRate	NumFrames	NumMarkers	Units	OrigDataRate	OrigDataStartFrame	OrigNumFrames
100	100	13	8	m	100	4268	6828
Frame#	Time	torso_imu_offset_imu	pelvis_imu_offset_imu	tibia_r_imu_offset_imu	femur_r_imu_offset_imu	tibia_l_imu_offset_imu	femur_l_imu_offset_imu	toes_r_imu_offset_imu	toes_l_imu_offset_imu
				X1	Y1	Z1	X2	Y2	Z2	X3	Y3	Z3	X4	Y4	Z4	X5	Y5	Z5	X6	Y6	Z6	X7	Y7	Z7	X8		Y8	Z8	

4268	42.67000000	-8.92238400	0.99555500	6.54741000	9.45992100	1.96583000	1.42294500	9.84630000	1.35960900	-0.19392000	9.60418500	0.84020600	-0.84304000	9.33510200	1.24637400	1.82083400	7.13946700	6.82435100	-1.65039500	5.07168300	1.55114400	8.69977200	12.00473100	-0.30329500	-0.72856000
4269	42.68000000	-9.07981000	1.08383500	6.66244000	9.65197200	2.22817300	1.46302300	9.91642900	1.30571700	-0.46841900	9.70903900	0.97749400	-0.53884200	10.93398900	2.65890200	2.22560200	8.71685300	4.54168900	-2.11498700	4.88975000	1.50346500	8.66764600	12.14607200	2.65072400	-3.36824400
4270	42.69000000	-9.31113600	1.16412300	6.68011400	10.04316600	2.29144700	1.36393100	10.49349700	1.50899700	0.06673100	10.26209700	0.94481800	-0.26595000	12.46958500	2.76788300	1.92864700	9.41555200	2.45822000	-1.27471700	4.14192900	1.63685200	9.80500900	14.45528100	-0.31752200	-4.53294900
4271	42.70000000	-9.58852700	1.20962600	6.79381100	10.51924200	2.17651200	1.42419000	10.83554300	1.63318700	0.35901000	10.78624700	1.08703100	-0.36976300	12.37986300	2.31877200	1.47406500	8.56681500	1.79691700	0.09900200	4.68626600	1.68514100	9.25195700	17.54952600	-0.36603200	-5.34024100
4272	42.71000000	-9.74651700	1.22806400	6.93820300	10.99333600	1.90284100	1.64299600	10.56282500	1.19126400	0.06037800	10.52449300	1.22663800	-0.49802100	12.22897200	2.06292400	1.38260600	8.22821500	2.60074300	0.70015400	4.78822600	1.44544200	8.82683500	8.98906000	-2.43947600	5.82962601
4273	42.72000000	-9.84986400	1.18809800	7.11859500	11.22160600	1.31727300	2.15005800	10.33223500	1.31640800	0.23711800	9.96913200	0.93487400	-0.45338700	12.28196800	2.11935700	1.21731600	9.59989800	3.79928900	0.01246900	5.14085800	1.71843000	8.83804300	9.14708900	1.90330800	19.70273200
4274	42.73000000	-10.19433600	1.20371300	7.31285000	11.61127200	0.95317900	2.48490900	10.30074500	1.23308200	-0.06535800	9.78191900	0.17172400	-0.42443700	11.59145700	3.61208400	0.55443900	11.49496100	5.20982400	-1.29661100	4.69197100	1.72559300	9.29011700	3.84200300	0.93850000	17.27932500
4275	42.74000000	-10.45719300	1.12938800	7.34824300	11.05203500	0.12015100	2.37486800	10.85866900	0.97732600	-0.06145100	10.05614900	-0.41258800	-0.24770800	9.69222500	5.00882200	1.51832200	11.52572300	6.91981900	-2.76411800	4.46375700	1.39125300	9.51023100	-2.08148700	-5.77608000	9.16779300
4276	42.75000000	-10.19338300	0.94591700	7.11837000	10.49583000	0.16944200	1.83933200	11.34623300	0.94955200	0.19727400	10.48590700	-0.69869100	-0.13239400	8.25889600	3.74626800	4.04501100	10.30530800	7.97352800	-3.83498300	4.18536300	0.77200200	9.64403900	5.20027200	-3.57111500	10.73555400
4277	42.76000000	-9.83493600	0.73120800	6.86156000	9.96394900	0.29818300	1.69853200	11.39500900	1.23827300	0.57819600	10.45517600	-0.96976300	-0.15880100	9.01174300	-0.32092200	5.45223100	9.66099600	6.93335300	-2.98941400	4.47496700	0.97055200	9.48794300	11.16948100	-0.27462200	13.87655800
4278	42.77000000	-9.70717300	0.68974100	6.74029400	9.99310900	0.59239200	1.83662600	11.04219100	1.75907800	0.83476400	10.15954700	-1.43554500	-0.25633400	10.56170400	-3.77930800	4.40483600	9.67323100	4.91661600	-0.89568300	4.60486600	0.98477100	9.39659100	11.98165600	-1.20388400	13.16829700
4279	42.78000000	-9.95523600	0.78341700	6.74972300	10.28778300	0.80560600	2.23047700	10.86640300	2.21414500	1.09161800	9.80211200	-2.13736600	-0.22753500	11.26402900	-4.34132200	1.40690200	10.63985900	3.41975000	1.87983700	4.48004100	1.00632300	9.64971000	12.71051200	-0.92272300	13.50095000
4280	42.79000000	-10.26581900	0.80485000	6.88364700	10.59544100	0.72135900	2.53369900	11.04536700	2.25706500	1.35643600	9.85323900	-2.82464100	-0.17868200	12.11265100	-2.12778000	-0.91083800	12.30409100	1.78956200	4.97938200	4.77762200	1.32878400	9.84700100	14.89986300	5.26007000	14.87297200
